<?xml version="1.0" encoding="utf-8"?>
<!-- Generator: Adobe Illustrator 27.5.0, SVG Export Plug-In . SVG Version: 6.00 Build 0)  -->
<svg version="1.1" xmlns="http://www.w3.org/2000/svg" xmlns:xlink="http://www.w3.org/1999/xlink" x="0px" y="0px"
	 viewBox="0 0 500 500" style="enable-background:new 0 0 500 500;" xml:space="preserve">
<g id="BACKGROUND">
	<rect style="fill:#FFFFFF;" width="500" height="500"/>
</g>
<g id="OBJECT">
	<path style="fill:#DD2F4C;" d="M415.149,61.043"/>
	<g>
		<g>
			<g>
				
					<text transform="matrix(1 0 0 1 76.2104 203.3993)" style="fill:#082E40; font-family:'Lato-Black'; font-size:18.7181px; letter-spacing:1;">YOUR BRAND</text>
			</g>
		</g>
	</g>
	<g>
		
			<text transform="matrix(1 0 0 1 106.1845 219.1558)" style="fill:#082E40; font-family:'Lato-Regular'; font-size:9.0423px; letter-spacing:2;">SLOGAN HERE</text>
	</g>
	<g>
		<g>
			<g>
				
					<text transform="matrix(1 0 0 1 76.2104 425.2716)" style="fill:#082E40; font-family:'Lato-Black'; font-size:18.7181px; letter-spacing:1;">YOUR BRAND</text>
			</g>
		</g>
	</g>
	<g>
		
			<text transform="matrix(1 0 0 1 106.1845 441.0282)" style="fill:#082E40; font-family:'Lato-Regular'; font-size:9.0423px; letter-spacing:2;">SLOGAN HERE</text>
	</g>
	<g>
		<g>
			<g>
				
					<text transform="matrix(1 0 0 1 280.964 203.3993)" style="fill:#082E40; font-family:'Lato-Black'; font-size:18.7181px; letter-spacing:1;">YOUR BRAND</text>
			</g>
		</g>
	</g>
	<g>
		
			<text transform="matrix(1 0 0 1 310.9381 219.1558)" style="fill:#082E40; font-family:'Lato-Regular'; font-size:9.0423px; letter-spacing:2;">SLOGAN HERE</text>
	</g>
	<g>
		<g>
			<g>
				
					<text transform="matrix(1 0 0 1 280.9643 425.2716)" style="fill:#082E40; font-family:'Lato-Black'; font-size:18.7181px; letter-spacing:1;">YOUR BRAND</text>
			</g>
		</g>
	</g>
	<g>
		
			<text transform="matrix(1 0 0 1 310.9384 441.0282)" style="fill:#082E40; font-family:'Lato-Regular'; font-size:9.0423px; letter-spacing:2;">SLOGAN HERE</text>
	</g>
	<path style="fill:#1395BA;" d="M175.513,77.173h-60.782c-8.005,0-14.571,2.94-19.698,8.817c-3.517,4.032-5.798,8.605-6.902,13.694
		h81.088h6.051c8.02,0,14.662,2.993,19.926,8.976c1.066,1.251,1.999,2.567,2.829,3.933V99.684
		C198.025,87.251,187.946,77.173,175.513,77.173z"/>
	<path style="fill:#15B788;" d="M195.196,123.105c-5.264-5.983-11.906-8.976-19.926-8.976h-60.718h-4.817h-4.549
		c-6.029,0-11.022-2.25-14.98-6.748c-0.801-0.941-1.503-1.93-2.127-2.957v4.866c0,6.672,2.255,13.22,6.663,18.228
		c0.034,0.039,0.069,0.078,0.104,0.117c5.252,6.003,11.88,9.005,19.885,9.005h60.595h4.804h4.549c6.029,0,11.022,2.25,14.98,6.748
		c0.801,0.941,1.503,1.93,2.127,2.957v-4.795c0-6.672-2.187-13.227-6.489-18.327C195.263,123.184,195.23,123.145,195.196,123.105z"
		/>
	<path style="fill:#1395BA;" d="M120.699,151.087h-6.051c-8.02,0-14.662-2.993-19.926-8.976c-1.066-1.251-1.999-2.567-2.829-3.933
		v12.909c0,12.433,10.079,22.512,22.512,22.512h60.782c8.005,0,14.571-2.94,19.698-8.817c3.517-4.032,5.798-8.605,6.902-13.694
		H120.699z"/>
	<g>
		<path style="fill:#1395BA;" d="M348.523,104.946c0-2.36,0.611-4.266,1.673-5.734c-0.002,0.002-0.005,0.005-0.007,0.007
			c-1.217,1.334-4.487,2.079-11.04,0.547c-6.553-1.532-9.83,1.66-9.83,1.66s5.66-12.809,24.894-10.851
			c11.48,1.168,15.145,8.536,16.308,12.749c0.197,0.651,0.346,1.337,0.44,2.059c0.082,0.56,0.097,0.89,0.097,0.89h27.249
			c-1.031-19.737-16.202-30.932-38.738-30.932c-15.823,0-28.656,5.82-34.42,16.599c-7.809,16.015-0.149,36.352,44.957,43.164
			c25.234,4.255,28.936,18.894,24.17,29.787c-4.766,10.894-14.809,13.447-14.809,13.447s24.176-3.926,24.176-25.209
			C403.645,120.064,348.523,121.231,348.523,104.946z"/>
		<path style="fill:#1395BA;" d="M361.745,95.106c-13.787-4.596-26.362,2.617-26.362,2.617s14.298-4.34,24.319-1.596
			c10.021,2.745,11.356,10.144,11.356,10.144C369.979,97.66,361.745,95.106,361.745,95.106z"/>
	</g>
	<path style="fill:#15B788;" d="M377.807,141.17c-2.695-0.945-5.752-1.735-9.232-2.322c-26.685-4.029-40.259-12.794-45.283-22.596
		c-16.848-5.906-19.047-18.074-14.938-27.465c2.521-5.762,6.513-9.18,9.719-11.131l0.018-0.018c0.06-0.036,0.112-0.065,0.172-0.101
		c0.083-0.05,0.163-0.096,0.245-0.144c7.533-4.446,9.55-4.454,14.705-5.872c6.133-1.687,9.17-4.394,9.17-4.394
		s-2.447,3.726-10,5.362c-9.358,2.027-14.872,7.399-16.493,9.188c1.709-0.552,5.31-1.491,11.132-1.954
		c15.607-1.242,17.617-16.213,17.617-16.213s-3.511,3.894-17.617,6.83c-18.859,3.925-25.172,18.777-25.172,18.777
		c0.003-0.004,0.007-0.007,0.01-0.01c-1.752,3.103-2.873,6.87-2.873,11.443c0,33.064,55.122,31.897,55.122,48.182
		c0,6.481-4.566,9.574-10.605,9.427c-6.775-0.147-11.489-4.124-11.931-10.752h-27.249c1.031,19.737,16.202,30.932,38.738,30.932
		c15.823,0,28.656-5.82,34.42-16.599C380.671,155.198,381.275,147.937,377.807,141.17z"/>
	<g>
		<g>
			<g>
				
					<text transform="matrix(1 0 0 1 281.4128 425.2716)" style="fill:#082E40; font-family:'Lato-Black'; font-size:18.7181px; letter-spacing:1;">YOUR BRAND</text>
			</g>
		</g>
	</g>
	<path style="fill:#15B788;" d="M372.046,332.142c-28.566-8.662-54.436-8.974-61.838-8.859
		c5.853,31.849,54.699,25.387,54.852,42.628c0,0.226-0.019,0.441-0.034,0.659v8.093c0,5.968-4.838,10.805-10.805,10.805
		s-10.805-4.838-10.805-10.805v-11.697c-0.009-0.102-0.024-0.195-0.033-0.297l0.033-0.018v-5.353
		c-39.064-7.404-38.298-38.383-38.298-38.383c-6.383,17.702-18.766,23.915-18.766,23.915c12.846,1.731,21.098-1.303,22.96-2.088
		v21.909c1.304,24.615,21.191,36.841,46.784,36.841c27.223,0,42.872-15.813,42.872-36.025
		C398.967,345.361,385.621,337.494,372.046,332.142z"/>
	<path style="fill:#1395BA;" d="M397.453,338.469v-21.135h0.046c-1.141-22.821-18.42-35.699-44.828-35.699
		c-24.289,0-43.035,12.063-43.035,34.559c-0.01,0.814,0.012,1.6,0.048,2.374c26.836,1.813,40.872,5.765,46.139,7.598
		c-7.056-2.832-12.118-5.936-12.118-11.114v-2.35c0-5.266,4.269-9.536,9.536-9.536h0c5.266,0,9.536,4.269,9.536,9.536v4.632l0,0
		v5.389c43.446,12.532,40.637,37.573,40.637,37.573c4.511-13.381,16.998-23.915,16.998-23.915
		C407.568,334.65,399.316,337.684,397.453,338.469z"/>
	<g>
		<path style="fill:#15B788;" d="M176.069,359.178c4.746-4.746,4.472-12.641-0.823-17.023c-4.614-3.818-11.457-3.247-15.692,0.988
			l-4.439,4.439l0,0l-4.677,4.678c-5.363,5.363-12.408,8.044-19.452,8.044s-14.088-2.681-19.451-8.043
			c-10.725-10.727-10.725-28.178,0-38.903l4.679-4.679c8.459-8.46,2.468-22.924-9.495-22.924h0c-7.416,0-13.429,6.012-13.429,13.429
			v85.483c0,7.416,6.012,13.429,13.429,13.429h24.874c3.561,0,6.977-1.415,9.495-3.933L176.069,359.178z"/>
		<path style="fill:#1395BA;" d="M167.325,285.754c-3.561,0-6.977,1.415-9.495,3.933l-34.983,34.983
			c-4.487,4.487-4.487,11.788,0,16.276c4.487,4.485,11.789,4.486,16.275-0.001l4.678-4.678l0-0.001l4.265-4.265
			c10.585-10.583,27.825-11.258,38.718-0.993c11.319,10.667,11.519,28.562,0.597,39.483l-4.678,4.678
			c-8.459,8.46-2.468,22.924,9.495,22.924h0c7.416,0,13.429-6.012,13.429-13.429v-85.483c0-7.416-6.012-13.429-13.429-13.429
			H167.325z"/>
	</g>
	<path style="fill:#231F20;" d="M212.346,354.489"/>
</g>
</svg>
